<?xml version="1.0" standalone="no"?>
<!DOCTYPE svg PUBLIC "-//W3C//DTD SVG 20010904//EN"
 "http://www.w3.org/TR/2001/REC-SVG-20010904/DTD/svg10.dtd">
<svg version="1.0" xmlns="http://www.w3.org/2000/svg"
 width="205.000000pt" height="205.000000pt" viewBox="0 0 205.000000 205.000000"
 preserveAspectRatio="xMidYMid meet">
<metadata>
Created by potrace 1.11, written by Peter Selinger 2001-2013
</metadata>
<g transform="translate(0.000000,205.000000) scale(0.100000,-0.100000)"
fill="#000000" stroke="none">
<path d="M378 1760 c-38 -4 -64 -12 -80 -26 -13 -12 -33 -27 -45 -33 -12 -6
-72 -95 -134 -197 -104 -174 -111 -189 -106 -227 5 -38 35 -70 475 -510 468
-468 469 -469 516 -474 l48 -6 474 474 c283 282 477 484 481 499 4 14 14 38
24 54 26 44 21 59 -98 254 -13 20 -39 65 -59 100 -20 35 -47 70 -60 79 -21 13
-106 15 -701 17 -373 0 -704 -1 -735 -4z m-289 -466 c-18 -22 -4 -42 29 -39
27 2 66 -34 404 -374 319 -320 378 -383 392 -423 20 -55 34 -68 51 -45 11 15
14 14 35 -8 13 -14 34 -25 47 -25 29 0 30 -14 1 -34 -13 -10 -31 -13 -47 -9
-16 4 -198 178 -483 463 -252 252 -458 462 -459 466 0 5 -2 17 -4 26 -2 9 4
26 13 39 l15 22 9 -23 c5 -14 4 -28 -3 -36z"/>
</g>
</svg>
