<svg id="Layer_1" data-name="Layer 1" xmlns="http://www.w3.org/2000/svg" viewBox="0 0 97.64 70.57"><defs><style>.cls-1{fill:#2980b9;}.cls-2{fill:#bdc3c7;}</style></defs><title>logov1</title><g id="_16_Value" data-name=" 16 Value"><path class="cls-1" d="M19.51,51.44l43,43a4,4,0,0,0,5.66,0h0l43-43a4,4,0,0,0,.6-4.89l-9.23-15.38A4,4,0,0,0,99,29.23H31.56a4,4,0,0,0-3.43,1.94L18.91,46.55A4,4,0,0,0,19.51,51.44Z" transform="translate(-14.71 -29.23)"/><path class="cls-2" d="M59.17,98.31l-43-43h0a5,5,0,0,1-.75-6.11l9.23-15.38A5,5,0,0,1,29,31.43H96.44a5,5,0,0,1,4.29,2.43L110,49.23a5,5,0,0,1-.75,6.11l-43,43a5,5,0,0,1-7.07,0ZM17.62,53.93l43,43a3,3,0,0,0,4.24,0l43-43a3,3,0,0,0,.45-3.67C98.52,34,98.79,33.42,96.51,33.42c-72.68,0-68.79-.63-70,1.46L17.17,50.26A3,3,0,0,0,17.62,53.93Z" transform="translate(-14.71 -29.23)"/><path class="cls-2" d="M82.71,51.2A1,1,0,0,1,82,49.53L95.26,34.76a1,1,0,0,1,1.49,1.34L83.45,50.87A1,1,0,0,1,82.71,51.2Z" transform="translate(-14.71 -29.23)"/><path class="cls-2" d="M78,50.87,64.66,36.1a1,1,0,0,1,1.49-1.34l13.3,14.77A1,1,0,0,1,78,50.87Z" transform="translate(-14.71 -29.23)"/><path class="cls-2" d="M46,49.53,59.3,34.76a1,1,0,0,1,1.49,1.34h0L47.45,50.87A1,1,0,0,1,46,49.53Z" transform="translate(-14.71 -29.23)"/><path class="cls-2" d="M42,50.87,28.66,36.1a1,1,0,1,1,1.49-1.34l13.3,14.77A1,1,0,0,1,42,50.87Z" transform="translate(-14.71 -29.23)"/><path class="cls-2" d="M41.7,53.43H19a1,1,0,0,1,0-2H41.7a1,1,0,0,1,0,2Z" transform="translate(-14.71 -29.23)"/><path class="cls-2" d="M77.7,53.43h-30a1,1,0,0,1,0-2h30a1,1,0,0,1,0,2Z" transform="translate(-14.71 -29.23)"/><path class="cls-2" d="M106.37,53.43H83.7a1,1,0,1,1,0-2h22.67a1,1,0,0,1,.81,1.17A1,1,0,0,1,106.37,53.43Z" transform="translate(-14.71 -29.23)"/><path class="cls-2" d="M64,93.64,78.7,54.88a1,1,0,0,1,1.87.71L65.82,94.36A1,1,0,0,1,64,93.64Z" transform="translate(-14.71 -29.23)"/><path class="cls-2" d="M58.86,93.63l-14.06-38a1,1,0,0,1,1.88-.69h0l14.06,38a1,1,0,0,1-1.88.69Z" transform="translate(-14.71 -29.23)"/></g></svg>